<svg xmlns="http://www.w3.org/2000/svg" viewBox="0 0 800 500" preserveAspectRatio="xMidYMid slice" role="img" aria-label="Pneu, engrenage et bougie"><rect width="800" height="500" fill="#E7E5DD"/><circle cx="410" cy="290" r="220" fill="#D9D5C9"/><rect x="0.0" y="0" width="50.5" height="54" fill="#1C1C18"/><rect x="50.0" y="0" width="50.5" height="54" fill="#E3A72E"/><rect x="100.0" y="0" width="50.5" height="54" fill="#1C1C18"/><rect x="150.0" y="0" width="50.5" height="54" fill="#E3A72E"/><rect x="200.0" y="0" width="50.5" height="54" fill="#1C1C18"/><rect x="250.0" y="0" width="50.5" height="54" fill="#E3A72E"/><rect x="300.0" y="0" width="50.5" height="54" fill="#1C1C18"/><rect x="350.0" y="0" width="50.5" height="54" fill="#E3A72E"/><rect x="400.0" y="0" width="50.5" height="54" fill="#1C1C18"/><rect x="450.0" y="0" width="50.5" height="54" fill="#E3A72E"/><rect x="500.0" y="0" width="50.5" height="54" fill="#1C1C18"/><rect x="550.0" y="0" width="50.5" height="54" fill="#E3A72E"/><rect x="600.0" y="0" width="50.5" height="54" fill="#1C1C18"/><rect x="650.0" y="0" width="50.5" height="54" fill="#E3A72E"/><rect x="700.0" y="0" width="50.5" height="54" fill="#1C1C18"/><rect x="750.0" y="0" width="50.5" height="54" fill="#E3A72E"/><path fill="#1C1C18" d="M0.0 54h50.0v0a25.0 25.0 0 0 1-50.0 0z"/><path fill="#E3A72E" d="M50.0 54h50.0v0a25.0 25.0 0 0 1-50.0 0z"/><path fill="#1C1C18" d="M100.0 54h50.0v0a25.0 25.0 0 0 1-50.0 0z"/><path fill="#E3A72E" d="M150.0 54h50.0v0a25.0 25.0 0 0 1-50.0 0z"/><path fill="#1C1C18" d="M200.0 54h50.0v0a25.0 25.0 0 0 1-50.0 0z"/><path fill="#E3A72E" d="M250.0 54h50.0v0a25.0 25.0 0 0 1-50.0 0z"/><path fill="#1C1C18" d="M300.0 54h50.0v0a25.0 25.0 0 0 1-50.0 0z"/><path fill="#E3A72E" d="M350.0 54h50.0v0a25.0 25.0 0 0 1-50.0 0z"/><path fill="#1C1C18" d="M400.0 54h50.0v0a25.0 25.0 0 0 1-50.0 0z"/><path fill="#E3A72E" d="M450.0 54h50.0v0a25.0 25.0 0 0 1-50.0 0z"/><path fill="#1C1C18" d="M500.0 54h50.0v0a25.0 25.0 0 0 1-50.0 0z"/><path fill="#E3A72E" d="M550.0 54h50.0v0a25.0 25.0 0 0 1-50.0 0z"/><path fill="#1C1C18" d="M600.0 54h50.0v0a25.0 25.0 0 0 1-50.0 0z"/><path fill="#E3A72E" d="M650.0 54h50.0v0a25.0 25.0 0 0 1-50.0 0z"/><path fill="#1C1C18" d="M700.0 54h50.0v0a25.0 25.0 0 0 1-50.0 0z"/><path fill="#E3A72E" d="M750.0 54h50.0v0a25.0 25.0 0 0 1-50.0 0z"/><ellipse cx="410" cy="452" rx="250" ry="18" fill="#1C1C18" opacity=".08"/><g transform="translate(-150 0)"><circle cx="520" cy="330" r="120" fill="#1C1C18"/><circle cx="520" cy="330" r="70" fill="#7D796E"/><circle cx="520" cy="330" r="22" fill="#E7E5DD"/><rect x="744.0" y="286.0" width="28" height="28" rx="4" fill="#E3A72E" transform="rotate(0 758.0 300.0)"/><rect x="730.6" y="327.1" width="28" height="28" rx="4" fill="#E3A72E" transform="rotate(36 744.6 341.1)"/><rect x="695.6" y="352.6" width="28" height="28" rx="4" fill="#E3A72E" transform="rotate(72 709.6 366.6)"/><rect x="652.4" y="352.6" width="28" height="28" rx="4" fill="#E3A72E" transform="rotate(108 666.4 366.6)"/><rect x="617.4" y="327.1" width="28" height="28" rx="4" fill="#E3A72E" transform="rotate(144 631.4 341.1)"/><rect x="604.0" y="286.0" width="28" height="28" rx="4" fill="#E3A72E" transform="rotate(180 618.0 300.0)"/><rect x="617.4" y="244.9" width="28" height="28" rx="4" fill="#E3A72E" transform="rotate(216 631.4 258.9)"/><rect x="652.4" y="219.4" width="28" height="28" rx="4" fill="#E3A72E" transform="rotate(252 666.4 233.4)"/><rect x="695.6" y="219.4" width="28" height="28" rx="4" fill="#E3A72E" transform="rotate(288 709.6 233.4)"/><rect x="730.6" y="244.9" width="28" height="28" rx="4" fill="#E3A72E" transform="rotate(324 744.6 258.9)"/><circle cx="688" cy="300" r="62" fill="#E3A72E"/><circle cx="688" cy="300" r="24" fill="#F9EDCB"/><rect x="740" y="380" width="22" height="70" rx="4" fill="#00806A"/><rect x="733" y="360" width="36" height="26" rx="4" fill="#E7E5DD"/></g></svg>
